<?xml version="1.0" standalone="no"?>
<!DOCTYPE svg PUBLIC "-//W3C//DTD SVG 20010904//EN"
 "http://www.w3.org/TR/2001/REC-SVG-20010904/DTD/svg10.dtd">
<svg version="1.0" xmlns="http://www.w3.org/2000/svg"
 width="630.000000pt" height="630.000000pt" viewBox="0 0 630.000000 630.000000"
 preserveAspectRatio="xMidYMid meet">

<g transform="translate(0.000000,630.000000) scale(0.100000,-0.100000)"
fill="#000000" stroke="none">
<path d="M1723 5679 c-38 -24 -95 -117 -134 -219 -52 -134 -50 -370 7 -785 8
-60 17 -121 20 -135 l6 -25 -25 23 c-36 34 -53 107 -87 377 -17 132 -34 249
-39 260 -7 17 -10 15 -20 -20 -6 -22 -21 -105 -33 -185 -18 -130 -19 -157 -9
-260 12 -126 42 -237 91 -345 17 -38 40 -92 50 -119 l19 -49 -27 24 c-83 72
-167 169 -227 263 -63 98 -93 131 -82 89 3 -10 8 -36 12 -58 6 -42 73 -255
102 -328 24 -61 86 -170 151 -265 l56 -82 -29 -33 c-17 -17 -53 -57 -81 -87
-59 -64 -85 -107 -126 -209 -27 -68 -30 -91 -38 -246 -10 -196 2 -507 24 -640
21 -119 127 -484 209 -716 134 -379 354 -778 506 -917 90 -82 307 -207 451
-259 135 -49 345 -100 490 -119 99 -13 169 -15 340 -10 118 4 256 11 305 17
120 14 331 70 452 118 386 156 419 176 469 273 37 74 34 87 -54 180 -112 120
-162 183 -162 205 0 14 23 32 88 65 80 43 354 152 482 193 100 32 99 23 4 138
-115 138 -315 403 -382 506 -70 109 -106 190 -129 291 l-18 81 -95 45 c-83 39
-102 53 -144 105 -65 80 -163 188 -197 217 l-28 23 -69 -20 c-84 -25 -184 -27
-329 -5 -57 8 -126 14 -151 12 -46 -3 -47 -4 -56 -43 -11 -54 -24 -79 -62
-124 -28 -32 -207 -167 -296 -224 -16 -10 -28 -26 -28 -36 0 -21 -78 -94 -91
-85 -5 3 -14 23 -21 46 -8 27 -26 52 -55 77 -44 36 -190 130 -250 160 -46 23
-93 97 -83 130 14 48 30 76 85 154 52 73 55 82 55 137 l0 59 43 5 c110 14 296
16 428 6 166 -13 194 -9 379 60 318 118 513 177 551 165 10 -4 59 -35 109 -71
64 -46 118 -75 183 -98 50 -19 108 -42 128 -51 l36 -17 59 39 c33 22 103 66
157 98 87 51 119 75 103 75 -3 0 -34 -15 -68 -34 -52 -29 -82 -37 -178 -49
-63 -8 -118 -12 -122 -8 -4 3 51 71 122 151 142 159 136 155 328 217 45 15 82
30 82 34 0 19 -137 25 -205 9 -22 -5 -41 -7 -43 -5 -2 2 34 31 80 66 105 78
218 178 218 192 0 5 -8 3 -17 -6 -25 -22 -265 -158 -270 -153 -2 2 30 42 72
88 111 121 275 344 275 373 0 5 -16 -8 -35 -28 -20 -21 -82 -64 -137 -97 -99
-58 -449 -240 -463 -240 -4 0 13 16 37 36 52 43 65 68 17 32 -19 -14 -95 -56
-169 -93 l-135 -67 86 89 c47 48 104 111 126 138 46 58 141 204 164 255 15 31
8 27 -55 -36 -48 -47 -141 -116 -282 -209 -115 -76 -228 -151 -251 -167 -24
-16 -43 -27 -43 -23 0 12 65 133 99 185 40 59 77 137 70 145 -3 2 -41 -44 -84
-103 -99 -135 -99 -135 -90 -92 13 59 87 228 163 373 41 76 72 141 69 143 -3
3 -56 -46 -119 -108 -121 -119 -212 -235 -292 -368 -26 -44 -52 -80 -58 -80
-6 0 -7 8 -3 18 13 33 55 213 55 238 0 46 -18 15 -30 -53 -19 -104 -32 -111
-24 -13 9 96 9 113 6 294 -1 71 -4 127 -6 125 -2 -2 -9 -51 -16 -109 -13 -124
-34 -188 -146 -449 -114 -268 -147 -328 -184 -336 -35 -8 -94 -51 -237 -175
-129 -112 -239 -173 -393 -220 -58 -18 -111 -39 -117 -48 -8 -9 -13 -46 -13
-91 0 -83 9 -65 -132 -274 -21 -31 -36 -62 -33 -67 10 -17 -48 -11 -110 10
-32 11 -66 20 -76 20 -16 0 -79 62 -155 156 l-37 45 36 77 c19 42 45 107 57
145 12 37 26 67 32 67 8 0 9 49 5 156 l-5 157 33 31 c36 34 55 87 55 154 0 32
-9 57 -35 97 -19 30 -49 83 -66 117 l-32 63 7 127 c7 125 8 129 45 191 24 38
45 91 55 137 35 156 86 247 168 303 47 31 43 32 -29 13 -74 -20 -152 -67 -210
-129 -60 -63 -71 -83 -112 -203 -25 -74 -32 -115 -37 -212 -6 -110 -2 -152 22
-234 3 -10 1 -18 -3 -18 -5 0 -17 25 -27 55 -16 53 -36 81 -36 52 0 -8 11 -52
24 -98 67 -231 116 -475 137 -679 l12 -115 -42 -108 c-40 -100 -91 -177 -118
-177 -6 0 -13 64 -17 153 -15 322 -51 603 -107 830 l-29 117 20 39 c28 56 65
156 90 248 l22 78 -17 147 -18 146 43 69 c78 125 144 180 275 231 l79 30 -44
6 c-25 3 -69 8 -98 11 -122 13 -311 157 -333 253 -12 50 -11 175 1 206 11 31
5 32 -37 5z m254 -2606 c7 -16 26 -62 44 -103 17 -41 35 -79 40 -85 6 -5 58
-15 117 -20 99 -9 124 -19 90 -37 -7 -3 -51 -25 -98 -47 -47 -23 -107 -57
-134 -77 -47 -35 -48 -37 -42 -77 6 -42 5 -42 -12 -19 -9 13 -34 52 -55 85
-39 62 -39 62 -33 142 3 44 6 114 6 155 0 71 1 76 28 92 35 23 35 23 49 -9z
m1957 -74 c25 -22 46 -47 46 -55 0 -32 -42 -93 -98 -146 -80 -74 -203 -134
-302 -148 -139 -19 -205 -32 -231 -46 -29 -15 -75 -77 -84 -116 -8 -33 10
-127 38 -192 25 -59 17 -100 -39 -197 -42 -72 -193 -290 -209 -301 -18 -13
-80 -9 -101 7 -30 23 -40 18 -11 -6 65 -50 131 -30 181 55 14 24 51 66 81 92
50 42 55 50 50 76 -4 18 -3 28 5 28 18 0 150 130 181 179 30 46 38 102 19 131
-11 18 5 30 39 30 12 0 54 16 92 36 93 49 163 126 186 204 16 52 21 59 53 69
50 15 113 64 135 106 11 19 23 35 27 35 9 0 -8 -49 -24 -67 -7 -8 -8 -49 -4
-115 8 -121 -7 -197 -49 -258 -35 -51 -77 -82 -173 -130 -86 -42 -152 -108
-279 -280 -39 -53 -77 -101 -84 -107 -8 -6 -44 -20 -81 -32 -37 -11 -111 -41
-165 -67 -120 -57 -153 -56 -269 3 -44 22 -104 48 -134 58 -140 45 -223 111
-295 235 -97 165 -185 298 -244 368 l-65 75 35 30 c33 28 177 127 185 127 2 0
11 -11 20 -24 15 -24 14 -27 -25 -76 -46 -59 -59 -94 -41 -115 10 -12 16 -7
36 33 13 27 35 59 49 72 23 22 25 22 50 6 30 -19 29 -15 9 -167 -18 -142 -16
-202 7 -207 14 -3 17 14 22 125 3 70 11 148 19 173 l14 45 112 3 113 3 59
-123 c62 -130 85 -143 56 -30 -26 97 -23 105 44 159 46 37 59 53 57 72 -3 35
37 55 172 85 134 30 182 64 196 138 3 11 6 22 8 24 2 3 545 161 558 163 3 1
27 -17 53 -40z m-1469 -201 c14 -6 25 -15 25 -20 0 -5 4 -7 9 -3 5 3 17 -2 25
-11 9 -8 16 -13 16 -10 0 4 25 -10 55 -30 30 -20 55 -38 55 -39 0 -5 -111 14
-122 21 -7 5 -17 9 -23 9 -25 2 -61 28 -72 52 -22 46 -15 53 32 31z m-150 -44
c8 -20 15 -38 15 -39 0 -2 -26 -18 -57 -36 -32 -17 -82 -52 -111 -75 -30 -24
-58 -44 -63 -44 -9 0 -78 71 -79 80 0 18 230 146 267 149 7 1 20 -15 28 -35z
m-344 -158 l66 -93 -59 -56 c-33 -32 -58 -66 -58 -77 0 -37 -21 -21 -45 35
-40 90 -41 101 -9 196 16 49 31 88 34 88 3 0 35 -42 71 -93z m1605 8 c-21 -7
-49 -11 -62 -8 -41 10 -15 24 44 23 l57 0 -39 -15z m-1406 -175 c0 -18 -5 -15
-45 17 -43 36 -75 87 -75 116 1 21 120 -110 120 -133z m-79 25 c7 -9 31 -28
54 -44 35 -24 44 -38 64 -101 34 -108 108 -271 153 -341 44 -68 144 -189 192
-231 81 -72 238 -167 276 -167 25 0 25 -2 0 -42 -27 -44 -26 -54 15 -132 39
-75 48 -148 19 -164 -17 -10 -117 8 -155 28 -44 23 -148 120 -225 210 -102
120 -317 432 -436 634 -86 146 -98 171 -98 212 0 44 3 50 58 100 31 30 60 54
63 54 4 0 12 -7 20 -16z"/>
<path d="M2785 4934 c-33 -14 -107 -58 -165 -98 -93 -64 -110 -81 -152 -147
-25 -41 -51 -92 -57 -115 -13 -50 2 -294 24 -396 8 -37 15 -71 15 -75 -2 -40
-81 209 -116 365 -8 39 -18 72 -21 72 -8 0 8 -169 28 -294 11 -65 18 -123 16
-129 -5 -16 -113 239 -136 324 -31 113 -29 144 17 187 l37 36 -33 -20 c-59
-34 -69 -82 -41 -191 12 -43 29 -114 39 -158 25 -116 88 -351 107 -396 8 -21
20 -39 27 -39 29 0 144 66 195 111 72 66 218 224 338 366 105 125 104 119 62
226 -13 32 -19 73 -19 125 0 73 2 80 29 106 28 27 28 27 65 10 33 -16 38 -17
52 -2 15 15 14 21 -9 71 -27 59 -30 61 -127 77 -90 14 -107 12 -175 -16z"/>
<path d="M2093 3315 c0 -22 2 -30 4 -17 2 12 2 30 0 40 -3 9 -5 -1 -4 -23z"/>
</g>
</svg>
